# xmcd CD database file
#
# Track frame offsets:
#	180
#	26946
#	51602
#	74413
#	106826
#	122995
#	141189
#	169400
#	198486
#	223625
#	272261
#
# Disc length: 4007 seconds
#
# Revision: 0
# Processed by: cddbd v1.5.1PL0 Copyright (c) Steve Scherf et al.
# Submitted via: CDex 1.60beta1
#
DISCID=b10fa50b
DTITLE=John Adams - Jump Shot
DYEAR=1900
DGENRE=Jazz
TTITLE0=Fuddy-Duddy
TTITLE1=Tricotomy
TTITLE2=Where Is Love?
TTITLE3=Darn That Dream
TTITLE4=Jump Shot
TTITLE5=Beautiful Love
TTITLE6=After Math
TTITLE7=Q's Blues
TTITLE8=Lineage
TTITLE9=Kyrié
TTITLE10=Canon In D
EXTD=
EXTT0=
EXTT1=
EXTT2=
EXTT3=
EXTT4=
EXTT5=
EXTT6=
EXTT7=
EXTT8=
EXTT9=
EXTT10=
PLAYORDER=
